<svg xmlns="http://www.w3.org/2000/svg"
     viewBox="162.031 155.719 3879.969 700.2"
     preserveAspectRatio="xMinYMid meet"
     fill="none"
     aria-labelledby="logoTitle"
     role="img">
    
    <title id="logoTitle">Satnam Energy logo</title>

    <path d="M 486.500 276.034 C 459.936 279.021, 432.998 288.707, 414 302.103 C 393.485 316.569, 377.629 339.526, 371.331 363.881 C 369.472 371.072, 368.701 377.218, 368.277 388.231 C 367.167 417.107, 372.587 438.227, 386.290 458.423 C 394.633 470.717, 411.184 485.970, 423.402 492.621 L 428.304 495.290 434.920 488.395 C 438.559 484.603, 450.753 471.913, 462.018 460.196 C 473.283 448.480, 482.644 438.486, 482.820 437.988 C 482.995 437.490, 480.216 435.758, 476.643 434.138 C 460.914 427.005, 449.234 417.238, 443.704 406.590 C 440.696 400.797, 440.540 399.939, 440.521 389 C 440.501 378.054, 440.658 377.166, 443.785 370.563 C 449.582 358.322, 456.441 351.024, 469 343.736 C 480.319 337.168, 501.290 333.219, 519 334.321 C 552.685 336.416, 573.580 348.317, 589.204 374.307 L 593.296 381.115 606.898 367.690 C 614.379 360.307, 625.537 349.410, 631.693 343.476 L 642.887 332.687 638.193 326.704 C 618.497 301.597, 587.298 284.461, 548.500 277.439 C 537.906 275.522, 498.917 274.638, 486.500 276.034 M 538.420 398.750 C 521.929 415.663, 502.376 435.796, 494.968 443.490 C 487.561 451.185, 464.222 475.157, 443.105 496.762 C 421.987 518.366, 404.911 536.244, 405.158 536.491 C 405.405 536.738, 425.269 537.066, 449.299 537.220 C 480.913 537.423, 492.993 537.812, 492.996 538.629 C 492.999 539.568, 471.983 594.382, 456.967 632.596 C 451.193 647.290, 451.655 648.284, 460.059 639.250 C 463 636.087, 491.098 607.400, 522.498 575.500 C 553.898 543.600, 588.418 508.500, 599.210 497.500 L 618.831 477.500 573.801 477.240 C 531.548 476.996, 528.805 476.872, 529.306 475.240 C 529.600 474.283, 531.938 468.100, 534.503 461.500 C 541.849 442.592, 569.985 368.669, 569.994 368.250 C 570.030 366.688, 564.060 372.455, 538.420 398.750 M 577.663 537.212 C 561.452 553.849, 554.450 561.683, 555.285 562.251 C 555.953 562.706, 558.300 564.015, 560.500 565.160 C 567.252 568.677, 576.633 575.754, 580.484 580.237 C 585.719 586.331, 590.722 597.320, 591.988 605.508 C 593.568 615.724, 592.052 624.537, 586.939 634.855 C 578.385 652.118, 562.064 663.254, 538.049 668.214 C 529.842 669.909, 525.830 670.116, 509.500 669.687 C 489.105 669.151, 482.232 668.050, 466.617 662.818 C 447.785 656.509, 431.518 646.072, 413.308 628.614 L 401.953 617.728 395.226 624.100 C 391.527 627.604, 380.705 638.238, 371.178 647.730 L 353.856 664.989 355.821 667.745 C 359.271 672.581, 377.228 689.417, 385.314 695.396 C 421.816 722.386, 470.471 735.166, 524.490 731.951 C 559.812 729.849, 590.138 720.882, 611.767 706.145 C 624.982 697.141, 639.656 681.912, 647.398 669.167 C 652.650 660.523, 658.570 644.949, 661.148 633 C 664.457 617.662, 664.451 593.274, 661.136 580.500 C 658.479 570.266, 652.980 557.830, 647.342 549.310 C 642.154 541.469, 631.193 530.067, 623.124 524.120 C 616.265 519.063, 605.105 513, 602.657 513 C 601.887 513, 590.640 523.896, 577.663 537.212" stroke="none" fill="#fbfbfb" fill-rule="evenodd"/>
    <path d="M 503 155.719 C 405.847 158.563, 314.845 200.472, 250.364 272.067 C 236.849 287.073, 229.603 296.256, 220.040 310.500 C 186.808 359.999, 167.449 415.563, 162.031 477 C 160.714 491.933, 160.723 526.357, 162.047 541 C 166.096 585.784, 179.222 631.617, 198.697 668.977 C 216.437 703.009, 234.993 728.109, 263.443 756.554 C 280.426 773.535, 291.038 782.594, 308.870 795.333 C 382.708 848.085, 471.812 869.203, 564.500 855.919 C 619.597 848.022, 673.891 825.884, 717.500 793.534 C 745.747 772.579, 765.505 753.662, 786.769 727.216 C 830.370 672.986, 855.704 609.663, 862.070 539 C 863.504 523.084, 863.502 488.775, 862.066 474.500 C 857.524 429.364, 846.055 390.068, 825.361 348.740 C 782.764 263.672, 710.684 202.674, 616.590 172.067 C 589.540 163.269, 558.747 157.539, 532.500 156.421 C 526.450 156.163, 519.025 155.851, 516 155.726 C 512.975 155.602, 507.125 155.599, 503 155.719 M 485 200.671 C 427.599 206.429, 376.852 225.415, 331 258.286 C 311.026 272.606, 287.078 295.315, 271.669 314.548 C 187.198 419.987, 180.488 569.155, 255.214 680.316 C 297.063 742.570, 362.687 788.599, 435.686 806.900 C 460.212 813.049, 475.276 815.013, 503.058 815.687 C 528.510 816.304, 545.474 815.277, 565.398 811.912 C 669.082 794.399, 760.778 719.824, 798.907 622 C 831.235 539.059, 827.581 451.757, 788.465 372.500 C 766.724 328.450, 739.885 295.203, 700.479 263.509 C 658.417 229.678, 600.731 206.726, 543.576 201.079 C 533.651 200.099, 493.496 199.819, 485 200.671" stroke="none" fill="#0cc4fa" fill-rule="evenodd"/>

    <!-- Added Text Element -->
<text x="950" y="550"
      font-family="Arial, Helvetica, sans-serif"
      font-size="420"
      text-anchor="start"
      dominant-baseline="middle">

  <!-- Satnam – cyan -->
  <tspan font-weight="700" fill="#0cc4fa">Satnam</tspan>

  <!-- Energy – same font & weight, white -->
  <tspan dx="10" font-weight="700" fill="#ffffff">Energy</tspan>
</text>

</svg>